<?xml version="1.0" standalone="no"?>
<!DOCTYPE svg PUBLIC "-//W3C//DTD SVG 20010904//EN"
 "http://www.w3.org/TR/2001/REC-SVG-20010904/DTD/svg10.dtd">
<svg version="1.0" xmlns="http://www.w3.org/2000/svg"
 width="700.000000pt" height="700.000000pt" viewBox="0 0 700.000000 700.000000"
 preserveAspectRatio="xMidYMid meet">
<metadata>
Created by potrace 1.14, written by Peter Selinger 2001-2017
</metadata>
<g transform="translate(0.000000,700.000000) scale(0.100000,-0.100000)"
fill="#000000" stroke="none">
<path d="M1255 6993 c-138 -12 -350 -75 -485 -143 -386 -196 -644 -533 -742
-971 l-23 -104 0 -2275 0 -2275 23 -104 c128 -568 527 -968 1095 -1093 l102
-23 2275 0 2275 0 102 23 c566 125 970 529 1095 1095 l23 102 0 2275 0 2275
-23 102 c-97 438 -360 782 -747 975 -93 47 -197 84 -325 116 l-105 27 -2250 1
c-1237 0 -2268 -1 -2290 -3z m427 -2579 l3 -725 129 183 c71 101 314 427 540
725 l411 543 433 0 c367 0 432 -2 425 -14 -4 -8 -260 -334 -568 -726 -308
-391 -559 -716 -558 -720 2 -5 255 -402 564 -882 309 -480 571 -888 582 -905
l19 -33 -419 0 -420 0 -398 640 c-219 352 -402 640 -405 640 -4 0 -82 -81
-174 -179 l-166 -180 0 -460 0 -461 -355 0 -355 0 0 1640 0 1640 355 0 355 0
2 -726z m2928 -629 l0 -1355 710 0 710 0 0 -285 0 -285 -1065 0 -1065 0 0
1640 0 1640 355 0 355 0 0 -1355z"/>
</g>
</svg>
