<?xml version="1.0" standalone="no"?>
<!DOCTYPE svg PUBLIC "-//W3C//DTD SVG 20010904//EN"
 "http://www.w3.org/TR/2001/REC-SVG-20010904/DTD/svg10.dtd">
<svg version="1.0" xmlns="http://www.w3.org/2000/svg"
 width="700.000000pt" height="700.000000pt" viewBox="0 0 700.000000 700.000000"
 preserveAspectRatio="xMidYMid meet">
<metadata>
Created by potrace 1.14, written by Peter Selinger 2001-2017
</metadata>
<g transform="translate(0.000000,700.000000) scale(0.100000,-0.100000)"
fill="#000000" stroke="none">
<path d="M810 3500 l0 -1740 380 0 380 0 0 488 1 487 176 190 c96 105 178 191
182 192 3 1 195 -302 427 -675 l421 -677 446 -3 c246 -1 447 0 447 3 0 4 -277
437 -615 963 -338 526 -616 960 -618 964 -1 3 269 351 601 772 331 420 602
767 602 771 0 3 -208 4 -462 3 l-462 -3 -418 -550 c-230 -302 -488 -648 -573
-769 l-155 -219 0 772 0 771 -380 0 -380 0 0 -1740z"/>
<path d="M3920 3500 l0 -1740 1135 0 1135 0 0 305 0 305 -755 0 -755 0 0 1435
0 1435 -380 0 -380 0 0 -1740z"/>
</g>
</svg>
