<?xml version="1.0" standalone="no"?>
<!DOCTYPE svg PUBLIC "-//W3C//DTD SVG 20010904//EN"
 "http://www.w3.org/TR/2001/REC-SVG-20010904/DTD/svg10.dtd">
<svg version="1.0" xmlns="http://www.w3.org/2000/svg"
 width="700.000000pt" height="700.000000pt" viewBox="0 0 700.000000 700.000000"
 preserveAspectRatio="xMidYMid meet">
<metadata>
Created by potrace 1.14, written by Peter Selinger 2001-2017
</metadata>
<g transform="translate(0.000000,700.000000) scale(0.100000,-0.100000)"
fill="#000000" stroke="none">
<path d="M3205 6989 c-599 -51 -1176 -257 -1674 -596 -684 -466 -1188 -1168
-1405 -1958 -90 -328 -120 -554 -120 -920 -1 -285 7 -391 45 -615 229 -1346
1256 -2455 2584 -2791 262 -66 488 -97 770 -106 818 -24 1593 231 2255 742
148 114 479 446 594 595 411 530 643 1103 728 1790 7 62 13 214 13 370 0 471
-68 845 -231 1262 -426 1097 -1373 1910 -2514 2157 -332 73 -715 98 -1045 70z
m2077 -2110 c116 -25 222 -98 289 -201 52 -81 73 -165 67 -275 -3 -77 -9 -100
-41 -169 l-38 -79 -1212 -1211 c-1177 -1176 -1214 -1213 -1287 -1248 -139 -68
-271 -69 -410 -4 -60 28 -117 83 -702 667 -521 521 -641 646 -664 691 -111
223 -46 469 158 601 81 52 165 73 276 67 80 -4 99 -9 169 -43 74 -36 99 -59
523 -481 l445 -443 1030 1027 c785 784 1042 1035 1081 1055 101 53 209 68 316
46z"/>
</g>
</svg>
